PathFileType	3	(X/Y/Z)	results
DataRate	CameraRate	NumFrames	NumMarkers	Units	OrigDataRate	OrigDataStartFrame	OrigNumFrames
30.0	30.0	4	85	mm	30.0	92	243
Frame#	Time	head			nose			neck			shoulder_r			elbow_r			wrist_r			shoulder_l			elbow_l			wrist_l			hip_r			knee_r			ankle_r			hip_l			knee_l			ankle_l			heel_r			heel_l			mtoe_r			ltoe_r			mtoe_l			ltoe_l			asis_l			asis_r			psi_r			psi_l			mhnd_r			lhnd_r			mhnd_l			lhnd_l			l_lat_knee			r_med_wrist			l_lat_ankle			r_med_ankle			r_lat_knee			xiphoid			l_med_ankle			r_med_knee			l_med_elbow			navel			r_lat_elbow			r_lat_wrist			l_med_wrist			l_lat_elbow			l_med_knee			r_med_elbow			r_lat_ankle			l_lat_wrist			chin			T10			r_eye			l_eye			l_ear			r_ear			spinal_cord_8			spinal_cord_12			spinal_cord_27			spinal_cord_33			up_arm_r_0			up_arm_r_5			up_arm_l_0			up_arm_l_5			front_torso_11			front_torso_7			front_torso_4			front_torso_1			front_torso_10			thigh_r_2			thigh_r_3			thigh_l_1			thigh_l_5			shank_l_0			shank_l_4			shank_r_1			shank_r_2			foot_r_1			foot_r_3			foot_r_5			foot_r_6			foot_r_7			foot_l_1			foot_l_7			foot_l_0			foot_l_4			foot_l_5			foot_l_6			
		X1	Y1	Z1	X2	Y2	Z2	X3	Y3	Z3	X4	Y4	Z4	X5	Y5	Z5	X6	Y6	Z6	X7	Y7	Z7	X8	Y8	Z8	X9	Y9	Z9	X10	Y10	Z10	X11	Y11	Z11	X12	Y12	Z12	X13	Y13	Z13	X14	Y14	Z14	X15	Y15	Z15	X16	Y16	Z16	X17	Y17	Z17	X18	Y18	Z18	X19	Y19	Z19	X20	Y20	Z20	X21	Y21	Z21	X22	Y22	Z22	X23	Y23	Z23	X24	Y24	Z24	X25	Y25	Z25	X26	Y26	Z26	X27	Y27	Z27	X28	Y28	Z28	X29	Y29	Z29	X30	Y30	Z30	X31	Y31	Z31	X32	Y32	Z32	X33	Y33	Z33	X34	Y34	Z34	X35	Y35	Z35	X36	Y36	Z36	X37	Y37	Z37	X38	Y38	Z38	X39	Y39	Z39	X40	Y40	Z40	X41	Y41	Z41	X42	Y42	Z42	X43	Y43	Z43	X44	Y44	Z44	X45	Y45	Z45	X46	Y46	Z46	X47	Y47	Z47	X48	Y48	Z48	X49	Y49	Z49	X50	Y50	Z50	X51	Y51	Z51	X52	Y52	Z52	X53	Y53	Z53	X54	Y54	Z54	X55	Y55	Z55	X56	Y56	Z56	X57	Y57	Z57	X58	Y58	Z58	X59	Y59	Z59	X60	Y60	Z60	X61	Y61	Z61	X62	Y62	Z62	X63	Y63	Z63	X64	Y64	Z64	X65	Y65	Z65	X66	Y66	Z66	X67	Y67	Z67	X68	Y68	Z68	X69	Y69	Z69	X70	Y70	Z70	X71	Y71	Z71	X72	Y72	Z72	X73	Y73	Z73	X74	Y74	Z74	X75	Y75	Z75	X76	Y76	Z76	X77	Y77	Z77	X78	Y78	Z78	X79	Y79	Z79	X80	Y80	Z80	X81	Y81	Z81	X82	Y82	Z82	X83	Y83	Z83	X84	Y84	Z84	X85	Y85	Z85	
92	3.0666666666666664	249.2542962447472	1429.6390796965638	-334.38132550834655	254.23281330407622	1265.7368693476008	-469.678270688347	254.25472831383894	1137.0697817896644	-304.2602256491349	397.9477952191933	1083.66725245106	-339.9479150469453	537.2088383567387	936.8615281079686	-507.37423761590384	375.7131049985796	1048.1511948493944	-619.7423023824251	81.26739366143363	1087.8147065420517	-330.71084697897174	-54.78921130553488	999.9714398699256	-544.9253362254078	166.15642541903696	1066.671854434694	-608.7410244429235	358.78191537032075	685.2263483546958	-67.66254392790542	398.9851402580477	439.83785204392586	-370.7601884766635	478.4880474317992	98.8390117583502	-194.53117091051317	153.39004027983785	675.0789427453782	-51.25547206786871	70.52794809213917	437.88206825881724	-364.4250244642606	59.71739165555311	101.17896283970407	-177.67457036282931	486.0629021898762	44.24339798915385	-162.22627358922702	53.50204487892932	41.29600037267482	-135.16440346074816	477.0213119599282	38.759394604783836	-388.3602285025502	545.0260725069272	34.10022432134451	-330.081751045879	58.9633116959676	44.410259300786734	-364.17947722953124	-20.01038624262648	28.441446418345958	-306.4884017188578	100.46125828874422	699.1316494370933	-122.66225320572137	401.59438165652864	713.5704894073075	-141.985082855679	303.58569485335704	811.4477888651891	-31.092364940727922	200.95971411110997	802.4031127186291	-27.59041964128356	332.7761043419994	1062.9664694978944	-677.3496750544119	315.25204963560503	1103.9790001436677	-647.6861942838881	226.37137484527568	1074.6559644132242	-654.8390792196321	248.36004818401491	1098.7147174985316	-612.4902661490174	25.11726059728869	450.0530741142834	-350.4266532639635	390.7825062109056	1033.1780018350269	-638.6489292565016	8.269201489434927	95.40335709709046	-160.34827229334013	450.0290703977615	75.29747374949753	-206.0043799060026	441.5224883190388	440.4018003135584	-369.2272363167719	259.2915546589991	943.4133118335637	-311.4375521356111	86.78494467800036	81.73735648658742	-187.74635297470837	358.105141157837	432.568231457579	-368.7390455119277	-49.949946868688144	969.6629544022547	-524.3936192369449	256.6566268492924	742.1021627563467	-225.07263102421194	556.168286029781	971.9439508094059	-512.0875963398528	367.60367682480415	1052.1240975693447	-589.7098626022595	147.81412045427638	1064.2777438014582	-636.4475745183282	-60.5778118671218	1040.4115627736614	-543.7751153932028	119.08898918576965	447.8882677757128	-367.51303539585444	513.83019007439	911.0956724592138	-494.7359807581191	528.3327073660636	94.75342136613408	-183.99486192255554	163.91210796348133	1075.7520242981009	-578.0696566179032	261.8071089920142	1189.1153662678078	-456.34392482312325	251.4658386272548	1042.2819424814804	-143.04587506621797	284.52661484698706	1299.8040670915161	-468.38165664832184	215.8790085852036	1293.6318766642623	-464.89248599559653	170.03393890828667	1276.390202858469	-361.2700972361239	340.7025401275682	1288.4159396999517	-367.61254815003537	252.25950995084196	1211.8515218282337	-287.81860378398756	249.16134253927186	1131.1418769319214	-188.72281560322463	264.3255406968319	900.6017922838031	-87.74096923711762	251.8553616812259	1027.806364555285	-150.2192898139125	447.07695183377143	1033.2853869142737	-458.3918274841026	509.4057109945768	990.7580575217701	-411.7343206572283	43.03381995075521	1097.6574906911105	-378.3595671645531	-27.092424109139507	988.7608172372092	-464.1036076747526	305.3592721166435	785.5615356965095	-200.80779282501808	261.4801338573	852.2869881746517	-299.0097781665938	192.35226657887125	979.9254288734783	-339.6733861653428	183.13609753421883	811.5703228536229	-224.42600897174609	343.1019545812953	1015.2798735796086	-359.842231539367	362.9386837499742	550.0735923784939	-228.58072485378966	460.7469252025823	540.0934122644034	-253.52099480145728	142.46276081312143	499.5264341313273	-269.27727780670017	36.606579039007975	645.7330540923253	-134.51808689780543	-5.2387753646192525	184.9799009283038	-222.40489327460406	112.92010877691285	300.55808976436515	-302.5610693920792	489.0243079164574	310.79675705802447	-287.29570730713596	403.0026433337926	248.43676856215168	-287.8708367110035	500.9385521179975	31.444403458432273	-370.9377761923297	525.6667304107873	33.23558265539034	-354.78730019741124	467.0049659196289	48.57085548998223	-304.9696590519162	504.392508723405	55.42653489024325	-292.5195617941378	536.0129866575053	41.981749442086674	-281.4538422926688	9.91250707143089	30.28011250760644	-337.35508159804704	-6.984252746510197	58.657303650269895	-230.11078836926583	-4.9770473029526405	29.826867598415415	-329.1045996697218	28.21727939668521	30.794450826134078	-346.8379145846197	22.114147262017347	45.58676435054872	-287.3366880588832	53.379534978130195	57.806625551401034	-257.6303399057661	
93	3.1	248.19802618167944	1397.2962031582867	-341.40022215909255	252.46423069832363	1233.4189749125958	-476.7517538310977	257.00222826049844	1109.0099679987661	-311.51808723032855	395.96176273000856	1062.7810269672275	-351.98259286231763	538.6433795281599	918.3521255074811	-518.5940599815358	369.97983790581986	1023.1437471989398	-626.5948449155528	86.06119184995234	1058.2467125034393	-339.7272672560732	-50.885005582654934	966.4298630794448	-551.6968212690972	169.3017243304471	1038.1108651489426	-612.6722234071806	356.1482879534954	661.2251231978337	-64.63511656668597	404.20567231569777	434.90610900687795	-382.29141120339375	478.0750733467331	97.82575163248275	-196.34052461991345	150.6042887724352	654.7765449971126	-48.262442971623074	68.70759588599994	432.0684635147895	-373.6063673207194	58.85672363702011	100.11219364221913	-178.49210171039218	485.0086096132862	43.39973857377311	-163.08015811587953	52.58173578904957	40.56504851412305	-135.09564596705897	478.336858337244	39.51538906984138	-389.329555409196	545.7186794096457	34.34734456535084	-330.3743371124333	57.802150364361346	44.2603788931491	-364.10769775100135	-21.265691244392453	28.959056580752765	-306.3646972801728	98.13357666873682	678.625579357634	-120.07445440515035	399.4792754602878	687.7134874911095	-139.34073531749596	303.05562969971453	788.8965059609113	-30.03684409584656	200.28996441256004	781.6296013001709	-26.491164256273734	324.77627715268767	1036.013467133328	-682.921536443736	306.79099580862623	1076.6457056136828	-653.0117871001364	229.92727321061957	1047.4176673138038	-657.9772237624628	250.79004843185638	1072.0308956415197	-615.3781518821587	23.48148459471089	444.9082441235841	-358.72827388604617	384.9553275834754	1008.5391240611993	-645.8609704632106	7.403349203286329	94.57942234362243	-161.1020701119341	449.8347375767258	74.10710731368026	-207.98789589311087	446.5663572613993	436.22192446304143	-379.15770515574684	259.2333146288747	915.1818716871112	-313.8425925109359	86.01204433553232	80.5260864824614	-188.03370814122601	363.19641180356234	428.0889273780496	-380.9916875625782	-45.2433110549916	936.3589306642245	-531.0211234413606	254.30806963756297	716.1623349769369	-222.41509579701975	556.1700668491347	954.0437029850586	-524.1957845235536	362.68314030954025	1027.083378001122	-596.3503126194827	151.39074794390035	1035.2594612157427	-640.6166549583082	-57.40535432524352	1006.7637441709904	-550.7494389482837	117.60424315952099	442.64999166176415	-374.94934754708356	516.4422134753703	891.9459487828993	-505.17809539034084	527.6237780814653	93.84276613904174	-184.45533780714098	166.44013448296658	1047.1769558848775	-582.0481062417844	260.02383413271843	1156.7876842317075	-463.4654016784445	253.9385928935125	1018.351330822741	-147.95096075317326	282.79429454258417	1267.4582056336267	-475.57379749209383	214.15617112868043	1261.347959498005	-471.8006027758338	168.72650081771894	1244.1256063162061	-367.9922178165986	339.37818605199567	1255.9968337356243	-375.0415269018889	256.1815826548141	1184.2020632586728	-296.9547146716212	252.59513090828335	1106.0599097148015	-195.8381390810614	265.14807302479153	877.9345025520855	-89.17399758123004	254.0741535260985	1003.6960336647658	-154.7594739664747	445.48374457876264	1012.1337356701852	-470.14939021289223	510.00215653749916	972.9070176869246	-423.57675853216693	47.08906355251804	1067.053429650432	-386.97874387723147	-22.027810536260017	956.2924527806545	-471.13977878850665	303.78519664333544	759.5115830488508	-199.56113071266333	260.2069984603708	824.3743872521371	-299.13548474940745	192.63396557885045	951.9334755577174	-342.567348764321	181.79002321185484	786.676398621289	-223.05649201403176	343.7339745682206	984.5955286788122	-364.5711004070611	364.4332600754593	536.5219916722243	-233.6282979334657	462.8049874159132	528.470533048244	-257.0002989240881	140.40455828124576	489.51070919465644	-274.21545912602977	34.44411378566652	630.3711161715768	-133.95614063620732	-6.34047922338328	182.5215666654549	-225.40396186718064	111.51312486276471	296.49782805688966	-308.2580024995408	491.67022005078195	307.5642622429154	-293.6405089128997	405.4787344406312	245.45063111472697	-294.9635179814981	502.0593785209373	32.04313554793142	-371.7087500873486	526.6189079031356	33.68454565637946	-355.2872919048706	467.4582491366981	48.756423866747426	-305.98186099749677	504.7224167479041	55.46950613407662	-293.09194410918775	536.2059802392497	41.90085344577509	-281.7895583998017	8.637986846299759	30.570172634840006	-337.2626989266405	-7.8325075092989875	58.82373322179894	-229.9194968620733	-6.2456475024101135	30.249947235454414	-328.99531743474444	26.935819385236535	30.919143082704366	-346.76642973301716	21.059029561291297	45.60864495524571	-287.21696629776386	52.48617961993852	57.41740954279626	-257.5150485901774	
94	3.1333333333333333	248.2669275877141	1365.9162292572905	-348.3287752576108	250.41435989947524	1201.359874065261	-482.9043230544037	258.40925530348153	1081.3271051057939	-318.18238932056613	392.1177118456901	1042.8489902270373	-360.5282107299608	543.695191488244	904.9434560519786	-524.7946517144934	368.2203564424599	995.8990282488519	-634.4692155279623	88.97429293629237	1030.2826175159319	-347.94462637182374	-43.83787173291997	929.850055034091	-558.6337717189172	174.76950292904328	1009.7045184346663	-614.9582084389049	353.7056842531502	637.2740486050375	-59.34552942186335	410.36018672330056	431.70461285378127	-390.67359833496175	477.5593059502524	97.16322042123349	-197.73857538181792	147.8805146224789	634.7165294940789	-45.65455271063358	66.78604309719246	427.03434483409035	-382.4289099270272	57.46190066876342	100.00770178874762	-179.1354851860825	483.6432784460744	42.81866763128883	-163.8378050446698	51.0061569468514	40.78842427037906	-134.92464063858688	479.86954614468965	40.32281176895165	-390.17366137278	546.434562992538	34.21825212834896	-330.3859607723012	57.33108529573841	45.18046180156854	-363.8965457818718	-22.163862809341726	30.538388169538294	-306.57053903036547	96.78892559261124	657.0094513702489	-118.94569964772059	398.4768339155253	660.5508184026824	-134.2713163038515	302.29233294690346	766.8734378257308	-29.73947571423141	199.38110426850542	761.4001212851011	-27.397782153352896	322.1760656810388	1004.5283796144331	-690.9240236292203	301.5418783206846	1044.4744200856267	-661.8106861805869	236.11258266515804	1020.9371550487267	-658.8384003702914	254.86557656818843	1046.8754137668716	-616.0449513616998	21.761148139589043	440.5910361481754	-366.5955775891884	384.1169099003565	981.9355093998729	-653.4708899597998	5.846347387358036	94.43757214610044	-162.2451680465359	449.6210206297021	73.34677451098077	-209.9033206669381	452.4613198843662	433.77941090791234	-385.7863085696457	258.97129782073165	887.4786948970713	-316.70253840152753	84.9086414737959	80.44024060061122	-187.8452596392834	369.199611494924	425.46125949343565	-390.07037343996285	-37.18305671052801	900.3717086730447	-537.4131518654816	252.9313851120224	690.3435016411727	-221.34397182064458	558.7796416979221	941.6061917155945	-531.1786915531342	360.7172464246074	999.9682069211658	-604.2924140826486	157.7109867300983	1005.8002286864354	-643.3058429235944	-51.81568221401829	969.9317572850689	-558.4189939609108	116.01064445672792	438.13324827428914	-382.03281625030417	523.3464798136815	877.3888760537484	-510.7646444610298	526.710265173124	93.2334811913339	-184.2873175610134	170.75973092353763	1019.0047993130065	-584.5337815109385	258.0526188814844	1124.784881459277	-469.34124906117995	255.61592742070616	993.9287141236472	-152.84546726943782	280.8050832650424	1235.3603547944351	-482.3205204201803	212.21797479481722	1229.3689611574425	-477.5586042126916	168.21933762736066	1212.7307855259799	-373.0409682817677	338.7721640202283	1224.318191414522	-382.5321171321808	258.3232632144213	1156.7950379526098	-305.09804041594754	254.71543720114974	1080.6881009935012	-202.44163100121182	266.0015682643271	854.6017065184935	-91.38496839267093	255.58296740051924	979.1418853036241	-159.36471344777567	444.60020609374476	993.2483132919683	-477.85820452154576	511.72309733645983	959.370187845645	-430.7714654696023	49.87068360645526	1036.8391804985447	-395.4525868948054	-14.90807101460287	922.1837108163934	-477.8300856429366	302.92147644601243	733.7033107329077	-199.65607544570133	259.2638490643989	796.9725852647721	-300.2160335773662	192.50605436796357	924.2342035925676	-345.73130510052584	181.01511338504886	761.4565542833296	-222.92359929382417	343.73579934577725	955.1483578238547	-369.3123741843903	366.50193919817144	523.9794650376031	-235.92072676702875	465.4215440694524	517.8629367285931	-257.49786767537535	138.28298531057834	480.0947900941374	-279.04607275987325	32.32710630896937	615.4340281618549	-133.44872107077188	-7.877164180444734	180.6055460463235	-228.90994401725405	109.98065451040134	293.55022423565237	-313.15889919247616	494.71452218255973	305.44474379880637	-297.5727547290877	408.4282670594041	243.52471596644565	-300.64163834865457	503.2960279868878	32.53958909668455	-372.29331713440064	527.654092662624	33.86923995220198	-355.5468036670211	467.9927807031147	49.168736745928335	-306.9194057461194	505.1437275741936	55.47923941346589	-293.5097703544774	536.359222403559	41.56910621671743	-281.88358845242317	7.89876058899093	31.930222628991395	-337.32462225981817	-8.767304068655474	60.00575889401323	-229.96489772639794	-7.02574602511534	31.742487331347554	-329.1271488534221	26.243291572035755	32.11414317232308	-346.7425685052785	20.247241379894803	46.66997417238204	-287.1721741359624	51.66057194150358	58.043235530236736	-257.2862545999303	
95	3.1666666666666665	246.75095646050553	1335.6752568052787	-355.527170399296	249.05929762576994	1169.5164039198705	-488.11635070182285	258.5270524789833	1055.2268601483336	-323.89962557294274	391.0315942921174	1022.4869829369669	-363.45519235507226	544.8368523215371	887.7186312909121	-528.2537552181353	366.8825721515065	966.1094875013732	-643.4926012182474	88.4603553831901	1003.4565986088994	-355.62565510463065	-38.55537953235499	894.4336815557474	-565.6177818593378	178.56375398114625	981.4685679320437	-616.82883700591	353.0773868711236	614.7630918957865	-52.251131268604865	413.3041412406152	429.75043117798594	-396.08401976787985	476.6794435659325	96.98625470479794	-198.8299656427189	146.961967503021	615.0993663769491	-43.631095364417895	63.64995350150221	423.1891935379026	-390.49455025380064	56.972472748866906	100.58952301323815	-180.1461600422046	482.2252826457822	42.81254918199427	-164.4718088282933	50.89124549401726	41.803990190074295	-135.08309258804553	482.36470579937736	39.94455698699935	-390.8346710510986	547.8620421654311	33.70996234616062	-329.892362118232	56.446957485950854	45.43455071812634	-364.0882915503272	-22.97500341507864	31.694024216474652	-306.4388492057418	97.9554352956272	634.0308611809767	-119.25434152734283	399.94973103791233	633.5811625694928	-127.14439506861535	302.4900016185318	746.2783800258255	-30.791908625783236	199.49471056665882	742.0203790437159	-30.757856300524022	321.3849279843618	970.5455370514471	-700.8683244301774	298.3401030389311	1010.3636299929785	-673.4366315826616	240.7303191097257	994.3058107187301	-659.0797562680982	257.24552345094094	1021.5559109038983	-616.1795535975554	18.97195995814335	437.3719984562318	-373.21489939545535	383.7523575452321	952.3286837918783	-661.7749339903286	5.228271974235865	94.51508564635614	-163.83317764392874	449.25190232798695	72.9180552113483	-211.64416343597247	455.17223418797795	432.571095836506	-390.05143345068467	259.4487970957701	861.4110002101198	-320.1214230565335	84.85985803766118	81.30486332288794	-188.04963595949633	371.9905478655795	424.0865581002754	-395.4251303774138	-31.18562523371439	865.6288927901957	-543.7192650173761	254.19778371213937	665.4120435814862	-222.4031696702704	558.3083843276896	924.8292167454447	-535.5869033660196	358.70252152097896	970.8048255483985	-613.5838267066889	162.50772181581277	976.5132552228574	-645.594676838693	-47.84153458374471	934.2269869335285	-566.3210715335964	113.18772929493679	434.8224500824329	-388.84196649435285	525.8874087811705	859.63898751165	-513.3333583076709	525.4317398405237	93.44528123570112	-183.90109781053638	173.31611814745267	991.0674025223843	-586.6867743274612	257.48459465196044	1093.1800867151367	-473.7007163187246	256.63814056211555	969.7937543018911	-157.52596282108	279.1596247278344	1203.779016943053	-488.23141236125576	210.67431779136732	1197.2622603552375	-482.74882999707467	167.8005407264562	1181.524161368291	-377.62606052256257	338.15077830675915	1194.446953309874	-388.869479801903	258.3625926508711	1130.8446185866514	-311.7117614943656	255.35611240880718	1055.9561754731074	-208.1438957234176	267.55441927992484	831.2251967454376	-94.46361889224025	256.60272709037554	954.9304960221845	-163.86901120857644	443.19382597353945	972.8557773936607	-480.9150230223232	512.5209042530827	942.5577239335207	-434.5884099275527	49.71435068022512	1007.7527245710096	-403.6816382398676	-10.3251766538619	889.3718775441808	-484.3627778760816	304.2060694464004	709.1147016341896	-201.4580947773118	259.9804840621253	771.1077657256749	-302.5632494915479	192.78656006117072	897.7015648587065	-349.2831509510696	182.14573018286302	736.3740884335809	-224.50111885260998	343.85193154201335	928.600694901458	-373.91412370864697	367.7002138659032	512.7780907681273	-235.4544052554323	466.79420067206263	508.5546148971485	-256.6821509353644	135.8834426482704	471.703528149642	-284.0193154605398	31.195372111507968	600.9690623275228	-132.1220605951841	-9.007527691179392	178.95434662306027	-232.57035873714352	108.10353781449817	292.00987344963784	-317.7072978180259	495.58687732866287	304.65692672396074	-299.6156725758938	409.78787510684435	242.2023206709828	-304.7905268846437	505.4504089325341	32.110231910194734	-372.5382512321672	529.5191993266152	33.383536818338435	-355.3743057931156	469.0784616112834	48.97351145653127	-307.8133923174914	506.01344114843715	55.177390011810104	-293.7722813880498	536.9737764181099	41.17842303198926	-281.58402506893555	6.990212213361553	32.717225160791244	-337.3022753960603	-9.040135685378834	61.27330550081689	-229.97249331535062	-7.906332136073411	32.69074716479995	-329.05200401712375	25.30227141239766	32.70495970341956	-346.78498032061015	19.649495328706927	47.497834950217324	-287.23942058854345	51.27046792440596	58.67602925952518	-257.49923461927676	
